<?xml version="1.0" standalone="no"?>
<!DOCTYPE svg PUBLIC "-//W3C//DTD SVG 20010904//EN"
 "http://www.w3.org/TR/2001/REC-SVG-20010904/DTD/svg10.dtd">
<svg version="1.0" xmlns="http://www.w3.org/2000/svg"
 width="487.000000pt" height="353.000000pt" viewBox="0 0 487.000000 353.000000"
 preserveAspectRatio="xMidYMid meet">

<g transform="translate(0.000000,353.000000) scale(0.100000,-0.100000)"
fill="#000000" stroke="none" opacity="0.1">
<path d="M2885 2839 c-233 -10 -345 -19 -345 -28 0 -9 161 -33 415 -62 99 -11
200 -25 225 -31 25 -6 56 -12 68 -13 29 -4 37 -11 23 -20 -6 -3 -11 -1 -11 5
0 6 -5 8 -10 5 -6 -4 -7 -11 -4 -17 4 -6 3 -8 -3 -5 -6 4 -24 2 -42 -3 -55
-15 -263 -38 -641 -70 -529 -45 -893 -86 -884 -101 3 -5 -10 -6 -28 -3 -23 4
-29 3 -19 -4 10 -8 7 -11 -16 -16 -51 -12 -93 -43 -93 -71 0 -51 104 -99 452
-206 571 -175 795 -270 941 -399 266 -233 -151 -626 -1338 -1265 -171 -93
-1001 -511 -1045 -528 -8 -3 331 -6 755 -6 l769 -1 211 132 c115 72 299 190
407 260 177 116 201 129 235 126 37 -3 32 -7 -212 -169 -137 -92 -315 -208
-394 -258 l-144 -91 747 0 746 0 201 198 c422 414 640 702 730 967 20 58 24
90 24 185 0 108 -2 119 -31 181 -39 81 -117 162 -213 219 -149 89 -464 205
-790 291 -90 24 -159 45 -154 46 16 6 402 -104 573 -162 173 -59 376 -151 453
-204 349 -240 276 -620 -232 -1216 -47 -55 -175 -191 -285 -302 l-199 -203 70
0 69 0 135 138 c328 335 530 597 645 837 134 280 125 489 -28 651 -65 69 -114
103 -231 162 -228 113 -548 213 -1111 348 -248 59 -355 80 -246 49 25 -7 38
-13 30 -14 -24 -1 -117 27 -95 29 11 1 -63 23 -165 49 -102 26 -216 58 -255
71 -176 58 -236 117 -154 151 23 9 27 14 17 21 -8 6 -1 7 21 3 26 -6 32 -4 26
5 -5 9 -4 11 4 6 6 -4 42 -1 79 8 90 20 254 41 604 76 353 35 548 61 548 71 0
5 6 6 13 4 16 -6 44 12 33 22 -5 4 -11 2 -13 -4 -3 -7 -9 -13 -15 -13 -6 0 -8
6 -5 13 6 16 -55 27 -328 57 -419 45 -478 55 -446 74 5 4 83 10 173 14 133 5
152 8 103 13 -72 8 -90 8 -320 -2z m605 -169 c-8 -5 -19 -10 -25 -10 -5 0 -3
5 5 10 8 5 20 10 25 10 6 0 3 -5 -5 -10z m-1267 -147 c-7 -2 -19 -2 -25 0 -7
3 -2 5 12 5 14 0 19 -2 13 -5z m-60 -10 c-7 -2 -19 -2 -25 0 -7 3 -2 5 12 5
14 0 19 -2 13 -5z m-56 -9 c-3 -3 -12 -4 -19 -1 -8 3 -5 6 6 6 11 1 17 -2 13
-5z m251 -35 c-72 -38 -40 -78 112 -137 47 -18 72 -30 55 -27 -46 10 -171 64
-200 87 -35 28 -29 58 15 80 48 25 64 22 18 -3z m-426 -19 c-36 -22 -42 -24
-42 -12 0 11 39 30 60 31 8 1 0 -8 -18 -19z m29 -85 c24 -14 38 -25 31 -25
-15 0 -92 38 -92 45 0 10 20 4 61 -20z m644 -75 c13 -5 14 -9 5 -9 -8 0 -24 4
-35 9 -13 5 -14 9 -5 9 8 0 24 -4 35 -9z m-326 -35 c57 -16 99 -31 93 -33 -12
-4 -191 46 -212 60 -13 8 -13 9 0 5 8 -2 62 -17 119 -32z m456 1 c50 -13 84
-25 77 -25 -15 -1 -175 38 -181 45 -8 8 14 3 104 -20z m122 -32 c-3 -3 -12 -4
-19 -1 -8 3 -5 6 6 6 11 1 17 -2 13 -5z m40 -10 c-3 -3 -12 -4 -19 -1 -8 3 -5
6 6 6 11 1 17 -2 13 -5z m40 -10 c-3 -3 -12 -4 -19 -1 -8 3 -5 6 6 6 11 1 17
-2 13 -5z m170 -40 c-3 -3 -12 -4 -19 -1 -8 3 -5 6 6 6 11 1 17 -2 13 -5z m40
-10 c-3 -3 -12 -4 -19 -1 -8 3 -5 6 6 6 11 1 17 -2 13 -5z m-407 -25 c142 -38
212 -60 208 -65 -3 -2 -74 16 -159 40 -85 25 -147 45 -139 45 9 1 49 -8 90
-20z m535 -3 c50 -13 83 -24 75 -25 -8 0 -55 10 -105 23 -49 13 -83 24 -75 25
8 0 56 -10 105 -23z m122 -32 c-3 -3 -12 -4 -19 -1 -8 3 -5 6 6 6 11 1 17 -2
13 -5z m-11 -175 c68 -28 127 -56 131 -62 10 -17 -35 -2 -142 46 -55 24 -111
49 -125 55 -19 8 -21 11 -7 11 10 1 74 -22 143 -50z m411 -277 c48 -71 57
-115 21 -110 -14 2 -25 15 -34 42 -8 21 -30 61 -49 88 l-36 49 27 -3 c21 -2
38 -18 71 -66z m-38 -414 c-24 -35 -81 -102 -126 -149 -68 -70 -90 -88 -118
-91 -41 -5 -45 5 -9 28 32 21 164 171 204 233 21 31 40 48 58 51 15 3 28 2 30
-2 2 -4 -16 -35 -39 -70z"/>
<path d="M1537 2470 c-62 -24 -77 -37 -77 -66 0 -54 94 -97 500 -225 339 -108
488 -163 630 -234 192 -96 279 -179 288 -275 8 -85 -37 -162 -172 -295 -264
-260 -742 -550 -1644 -999 -191 -94 -443 -217 -560 -271 l-214 -100 71 -3 70
-3 253 121 c316 152 736 366 1023 523 839 458 1247 787 1247 1005 0 59 -17 95
-74 148 -132 126 -333 213 -875 383 -407 127 -503 170 -503 225 0 28 19 45 74
68 56 23 23 22 -37 -2z"/>
</g>
</svg>
